<svg width="19" height="18" viewBox="0 0 19 18" fill="none" xmlns="http://www.w3.org/2000/svg">
<path d="M1.48199 0.454224L0.521261 14.8217C0.521261 14.8752 0.521261 14.9286 0.521261 14.9821C0.519916 15.3113 0.584676 15.6375 0.711842 15.9421C0.839009 16.2467 1.02609 16.5238 1.26241 16.7575C1.49873 16.9911 1.77965 17.1769 2.08914 17.3041C2.39863 17.4312 2.73063 17.4974 3.06618 17.4987H16.1076C16.4425 17.477 16.7698 17.3908 17.0707 17.2451C17.3716 17.0993 17.6403 16.8968 17.8615 16.6492C18.0826 16.4015 18.2519 16.1135 18.3595 15.8017C18.4672 15.4898 18.5112 15.1602 18.489 14.8317L17.518 0.454224H1.48199Z" fill="black"/>
</svg>
